<svg width="26" height="27" viewBox="0 0 26 27" fill="none" xmlns="http://www.w3.org/2000/svg">
<path d="M21.2139 14.4233C21.4148 14.2224 21.5152 13.9713 21.5152 13.67C21.5152 13.3686 21.4148 13.1175 21.2139 12.9166L19.6904 11.3932L13.6302 5.3329C13.4293 5.13201 13.1782 5.03156 12.8768 5.03156C12.5755 5.03156 12.3244 5.13201 12.1235 5.3329L10.6 6.85634C10.3991 7.05723 10.2987 7.30835 10.2987 7.60969C10.2987 7.91103 10.3991 8.16215 10.6 8.36304L13.7641 11.5271H5.36007C5.06989 11.5271 4.81878 11.6331 4.60672 11.8452C4.39467 12.0572 4.28864 12.3083 4.28864 12.5985V14.7414C4.28864 15.0316 4.39467 15.2827 4.60672 15.4947C4.81878 15.7068 5.06989 15.8128 5.36007 15.8128H13.7641L10.6 18.9769C10.388 19.1889 10.2819 19.44 10.2819 19.7302C10.2819 20.0204 10.388 20.2715 10.6 20.4836L12.1235 22.007C12.3244 22.2079 12.5755 22.3083 12.8768 22.3083C13.1782 22.3083 13.4293 22.2079 13.6302 22.007L19.6904 15.9467L21.2139 14.4233ZM23.9929 7.21627C23.9929 7.21627 24.2803 7.70874 24.855 8.69367C25.4298 9.67861 25.7172 11.3374 25.7172 13.67C25.7172 16.0025 25.1424 18.1538 23.9929 20.1236C22.8433 22.0935 21.2836 23.6532 19.3138 24.8028C17.3439 25.9523 15.1927 26.5271 12.8601 26.5271C10.5275 26.5271 8.37626 25.9523 6.40639 24.8028C4.43652 23.6532 2.87681 22.0935 1.72726 20.1236C0.577707 18.1538 0.00292969 16.0025 0.00292969 13.67C0.00292969 11.3374 0.577707 9.18614 1.72726 7.21627C2.87681 5.24641 4.43652 3.6867 6.40639 2.53715C8.37626 1.38759 10.5275 0.812815 12.8601 0.812815C15.1927 0.812815 17.3439 1.38759 19.3138 2.53715C21.2836 3.6867 22.8433 5.24641 23.9929 7.21627Z" fill="#5784B2"/>
</svg>
