<svg width="9" height="6" viewBox="0 0 9 6" fill="none" xmlns="http://www.w3.org/2000/svg">
<path d="M8.24023 1.07031C8.29232 1.1224 8.31836 1.18229 8.31836 1.25C8.31836 1.31771 8.29232 1.3776 8.24023 1.42969L4.59961 5.07031C4.54753 5.1224 4.48763 5.14844 4.41992 5.14844C4.35221 5.14844 4.29232 5.1224 4.24023 5.07031L0.599609 1.42969C0.547526 1.3776 0.521484 1.31771 0.521484 1.25C0.521484 1.18229 0.547526 1.1224 0.599609 1.07031L0.990234 0.679688C1.04232 0.627604 1.10221 0.601562 1.16992 0.601562C1.23763 0.601562 1.29753 0.627604 1.34961 0.679688L4.41992 3.75L7.49023 0.679688C7.54232 0.627604 7.60221 0.601562 7.66992 0.601562C7.73763 0.601562 7.79753 0.627604 7.84961 0.679688L8.24023 1.07031Z" fill="#B61919"/>
</svg>
