<svg width="8" height="20" viewBox="0 0 8 20" fill="none" xmlns="http://www.w3.org/2000/svg">
<path d="M4.57031 10.3203C4.6224 10.3724 4.64844 10.4323 4.64844 10.5C4.64844 10.5677 4.6224 10.6276 4.57031 10.6797L0.929688 14.3203C0.877604 14.3724 0.817708 14.3984 0.75 14.3984C0.682292 14.3984 0.622396 14.3724 0.570312 14.3203L0.179688 13.9297C0.127604 13.8776 0.101562 13.8177 0.101562 13.75C0.101562 13.6823 0.127604 13.6224 0.179688 13.5703L3.25 10.5L0.179688 7.42969C0.127604 7.3776 0.101562 7.31771 0.101562 7.25C0.101562 7.18229 0.127604 7.1224 0.179688 7.07031L0.570312 6.67969C0.622396 6.6276 0.682292 6.60156 0.75 6.60156C0.817708 6.60156 0.877604 6.6276 0.929688 6.67969L4.57031 10.3203ZM7.57031 10.3203C7.6224 10.3724 7.64844 10.4323 7.64844 10.5C7.64844 10.5677 7.6224 10.6276 7.57031 10.6797L3.92969 14.3203C3.8776 14.3724 3.81771 14.3984 3.75 14.3984C3.68229 14.3984 3.6224 14.3724 3.57031 14.3203L3.17969 13.9297C3.1276 13.8776 3.10156 13.8177 3.10156 13.75C3.10156 13.6823 3.1276 13.6224 3.17969 13.5703L6.25 10.5L3.17969 7.42969C3.1276 7.3776 3.10156 7.31771 3.10156 7.25C3.10156 7.18229 3.1276 7.1224 3.17969 7.07031L3.57031 6.67969C3.6224 6.6276 3.68229 6.60156 3.75 6.60156C3.81771 6.60156 3.8776 6.6276 3.92969 6.67969L7.57031 10.3203Z" fill="#4A51B0"/>
</svg>
